<svg width="119" height="39" viewBox="0 0 119 39" fill="none" xmlns="http://www.w3.org/2000/svg">
<rect width="54.1875" height="39" fill="#F5D10D"/>
<path d="M49.4296 8.6L41.9416 31H38.5816L32.4696 13.112L26.3576 31H22.9336L15.4456 8.6H18.7416L24.7896 26.808L31.0936 8.6H34.0376L40.2136 26.904L46.3896 8.6H49.4296Z" fill="#181818"/>
<path d="M59.7216 14.04H62.7936V31H59.7216V14.04ZM61.2576 10.776C60.6603 10.776 60.159 10.584 59.7536 10.2C59.3696 9.816 59.1776 9.34667 59.1776 8.792C59.1776 8.23733 59.3696 7.768 59.7536 7.384C60.159 6.97867 60.6603 6.776 61.2576 6.776C61.855 6.776 62.3456 6.968 62.7296 7.352C63.135 7.71467 63.3376 8.17333 63.3376 8.728C63.3376 9.304 63.135 9.79467 62.7296 10.2C62.3456 10.584 61.855 10.776 61.2576 10.776ZM74.8351 13.88C77.1818 13.88 78.9738 14.456 80.2111 15.608C81.4698 16.76 82.0991 18.4773 82.0991 20.76V31H79.1871V28.76C78.6751 29.5493 77.9391 30.1573 76.9791 30.584C76.0405 30.9893 74.9205 31.192 73.6191 31.192C71.7205 31.192 70.1951 30.7333 69.0431 29.816C67.9125 28.8987 67.3471 27.6933 67.3471 26.2C67.3471 24.7067 67.8911 23.512 68.9791 22.616C70.0671 21.6987 71.7951 21.24 74.1631 21.24H79.0271V20.632C79.0271 19.3093 78.6431 18.296 77.8751 17.592C77.1071 16.888 75.9765 16.536 74.4831 16.536C73.4805 16.536 72.4991 16.7067 71.5391 17.048C70.5791 17.368 69.7685 17.8053 69.1071 18.36L67.8271 16.056C68.7018 15.352 69.7471 14.8187 70.9631 14.456C72.1791 14.072 73.4698 13.88 74.8351 13.88ZM74.1311 28.824C75.3045 28.824 76.3178 28.568 77.1711 28.056C78.0245 27.5227 78.6431 26.776 79.0271 25.816V23.448H74.2911C71.6885 23.448 70.3871 24.3227 70.3871 26.072C70.3871 26.9253 70.7178 27.5973 71.3791 28.088C72.0405 28.5787 72.9578 28.824 74.1311 28.824ZM96.8401 13.88C98.9948 13.88 100.701 14.5093 101.96 15.768C103.24 17.0053 103.88 18.8293 103.88 21.24V31H100.808V21.592C100.808 19.9493 100.413 18.712 99.6241 17.88C98.8348 17.048 97.7041 16.632 96.2321 16.632C94.5681 16.632 93.2561 17.1227 92.2961 18.104C91.3361 19.064 90.8561 20.4507 90.8561 22.264V31H87.7841V14.04H90.7281V16.6C91.3468 15.7253 92.1788 15.0533 93.2241 14.584C94.2908 14.1147 95.4961 13.88 96.8401 13.88Z" fill="#F5D10D"/>
</svg>
