<svg width="32" height="32" viewBox="0 0 32 32" fill="none" xmlns="http://www.w3.org/2000/svg">
<path d="M23.3378 0H8.66209C3.88573 0 0 3.88573 0 8.66209V23.3381C0 28.1142 3.88573 31.9999 8.66209 31.9999H23.3381C28.1142 31.9999 31.9999 28.1142 31.9999 23.3381V8.66209C31.9999 3.88573 28.1142 0 23.3378 0V0ZM30.124 23.3381C30.124 27.0798 27.0798 30.124 23.3378 30.124H8.66209C4.92016 30.124 1.87597 27.0798 1.87597 23.3381V8.66209C1.87597 4.92016 4.92016 1.87597 8.66209 1.87597H23.3381C27.0798 1.87597 30.124 4.92016 30.124 8.66209V23.3381Z" fill="#F5D10D"/>
<path d="M16 7.25024C11.1753 7.25024 7.25023 11.1753 7.25023 16C7.25023 20.8247 11.1753 24.7497 16 24.7497C20.8247 24.7497 24.7497 20.8247 24.7497 16C24.7497 11.1753 20.8247 7.25024 16 7.25024ZM16 22.8737C12.2099 22.8737 9.1262 19.7903 9.1262 16C9.1262 12.21 12.2099 9.12622 16 9.12622C19.7902 9.12622 22.8737 12.21 22.8737 16C22.8737 19.7903 19.7902 22.8737 16 22.8737Z" fill="#F5D10D"/>
<path d="M24.9589 4.14282C23.5332 4.14282 22.3735 5.30273 22.3735 6.72827C22.3735 8.15405 23.5332 9.31395 24.9589 9.31395C26.3847 9.31395 27.5446 8.15405 27.5446 6.72827C27.5446 5.30249 26.3847 4.14282 24.9589 4.14282ZM24.9589 7.43774C24.5678 7.43774 24.2495 7.11938 24.2495 6.72827C24.2495 6.33691 24.5678 6.0188 24.9589 6.0188C25.3503 6.0188 25.6686 6.33691 25.6686 6.72827C25.6686 7.11938 25.3503 7.43774 24.9589 7.43774Z" fill="#F5D10D"/>
</svg>
