<svg width="32" height="32" viewBox="0 0 32 32" fill="none" xmlns="http://www.w3.org/2000/svg">
<g clip-path="url(#clip0)">
<path d="M20.9254 14.562L13.8559 10.6939C13.4494 10.4714 12.9689 10.4797 12.5705 10.7158C12.1718 10.9522 11.934 11.3696 11.934 11.833V19.5029C11.934 19.9641 12.1704 20.3808 12.5664 20.6174C12.7731 20.7409 13.0024 20.8029 13.2321 20.8029C13.4426 20.8029 13.6535 20.7509 13.8476 20.6464L20.9174 16.8449C21.3371 16.6191 21.599 16.1828 21.601 15.706C21.6027 15.2292 21.3439 14.791 20.9254 14.562ZM13.8093 18.5381V12.8057L19.0929 15.6968L13.8093 18.5381Z" fill="#F5D10D"/>
<path d="M31.7645 9.59544L31.7631 9.58079C31.736 9.32322 31.4662 7.03221 30.3524 5.86694C29.0651 4.49634 27.6056 4.32983 26.9037 4.25C26.8456 4.24341 26.7924 4.2373 26.7448 4.23096L26.6889 4.2251C22.4584 3.91748 16.0695 3.87549 16.0056 3.87524L15.9999 3.875L15.9943 3.87524C15.9304 3.87549 9.54147 3.91748 5.27293 4.2251L5.21653 4.23096C5.17112 4.23706 5.12107 4.24267 5.06663 4.24902C4.37279 4.3291 2.92894 4.49585 1.63793 5.91601C0.577146 7.06884 0.270507 9.31077 0.239013 9.56272L0.235351 9.59544C0.225829 9.70261 0 12.2541 0 14.8156V17.2102C0 19.7717 0.225829 22.3232 0.235351 22.4306L0.23706 22.4467C0.264159 22.7001 0.533689 24.9491 1.64233 26.1149C2.85277 27.4396 4.38328 27.6149 5.20652 27.7091C5.33665 27.724 5.44871 27.7367 5.52512 27.7502L5.5991 27.7604C8.04172 27.9928 15.7001 28.1073 16.0248 28.112L16.0346 28.1122L16.0444 28.112C16.1083 28.1117 22.497 28.0697 26.7274 27.7621L26.7833 27.7563C26.8368 27.7492 26.8969 27.7428 26.9628 27.736C27.6527 27.6627 29.0888 27.5106 30.3619 26.1098C31.4227 24.9567 31.7296 22.7148 31.7609 22.4631L31.7645 22.4303C31.774 22.3229 32.0001 19.7717 32.0001 17.2102V14.8156C31.9999 12.2541 31.774 9.70286 31.7645 9.59544ZM30.1246 17.2102C30.1246 19.581 29.9176 22.0226 29.8981 22.2468C29.8185 22.8642 29.495 24.2826 28.9782 24.8444C28.1813 25.7211 27.3627 25.808 26.765 25.8713C26.6928 25.8788 26.6259 25.8861 26.5653 25.8937C22.4735 26.1896 16.3259 26.235 16.0427 26.2367C15.725 26.2321 8.17868 26.1166 5.81052 25.8966C5.68919 25.8769 5.55808 25.8617 5.4199 25.8461C4.71898 25.7658 3.75951 25.6559 3.02172 24.8444L3.00438 24.8258C2.49657 24.2968 2.18236 22.9704 2.10253 22.2541C2.08764 22.0846 1.87524 19.6142 1.87524 17.2102V14.8156C1.87524 12.4475 2.08178 10.0085 2.1018 9.77976C2.19677 9.05247 2.52636 7.71996 3.02172 7.18138C3.843 6.27807 4.70897 6.17797 5.28172 6.11181C5.3364 6.10546 5.38743 6.0996 5.43455 6.0935C9.5859 5.79613 15.7778 5.75195 15.9999 5.75024C16.2221 5.7517 22.4118 5.79613 26.5263 6.0935C26.5768 6.09984 26.632 6.10619 26.6913 6.11303C27.2804 6.18017 28.1708 6.28173 28.9879 7.15331L28.9955 7.16136C29.5033 7.69041 29.8175 9.04002 29.8973 9.77073C29.9115 9.93064 30.1246 12.4065 30.1246 14.8156V17.2102Z" fill="#F5D10D"/>
</g>
<defs>
<clipPath id="clip0">
<rect width="32" height="31.9999" fill="white"/>
</clipPath>
</defs>
</svg>
