<svg width="71" height="71" viewBox="0 0 71 71" fill="none" xmlns="http://www.w3.org/2000/svg">
<path d="M28.3584 63.7346V70.9255L26.6196 69.5209C26.3509 69.3037 19.9585 64.1138 13.4761 56.6715C4.53392 46.4049 0 37.1892 0 29.2811V28.4973C0 12.8604 12.7215 0.138916 28.3584 0.138916C43.9953 0.138916 56.7168 12.8604 56.7168 28.4973V29.2811C56.7168 29.9452 56.6816 30.6196 56.6177 31.3022L51.0719 26.2428C49.936 14.7114 40.1834 5.67225 28.3584 5.67225C15.7728 5.67225 5.53333 15.9118 5.53333 28.4973V29.2811C5.53333 42.6446 22.7514 58.822 28.3584 63.7346ZM45.3733 59.7602H53.6731V51.4605H45.3733V59.7602ZM28.3584 16.7389C34.8419 16.7389 40.1168 22.0139 40.1168 28.4973C40.1168 34.9808 34.8419 40.2557 28.3584 40.2557C21.8749 40.2557 16.6 34.9808 16.6 28.4973C16.6 22.0139 21.8749 16.7389 28.3584 16.7389ZM28.3584 22.2722C24.9257 22.2722 22.1333 25.0646 22.1333 28.4973C22.1333 31.9294 24.9257 34.7224 28.3584 34.7224C31.7905 34.7224 34.5835 31.9294 34.5835 28.4973C34.5835 25.0646 31.7905 22.2722 28.3584 22.2722ZM67.271 56.0004L65.7153 54.5812V63.4643C65.7153 67.6006 62.3498 70.9656 58.2135 70.9656H40.6948C36.5585 70.9656 33.193 67.6006 33.193 63.4643V54.5812L31.6372 56.0004L27.9083 51.9128L49.4539 32.2566L71 51.9128L67.271 56.0004ZM60.182 49.5332L49.4539 39.7465L38.7263 49.5332V63.4637C38.7263 64.5493 39.6092 65.4322 40.6948 65.4322H58.2135C59.299 65.4322 60.182 64.5493 60.182 63.4637V49.5332Z" fill="#181818"/>
</svg>
