<svg width="105" height="105" viewBox="0 0 105 105" fill="none" xmlns="http://www.w3.org/2000/svg">
<g clip-path="url(#clip0)">
<path d="M82.9063 64.6837C80.8457 60.3875 73.4738 54.4242 66.3514 48.6624C62.3788 45.451 58.6251 42.4149 56.232 40.0218C55.6326 39.4181 54.7358 39.2255 53.944 39.5099C52.4697 40.0437 51.5595 40.4549 50.8422 40.7742C49.7485 41.2642 49.381 41.4305 47.9065 41.5792C47.2545 41.6448 46.6684 41.9949 46.3052 42.5373C43.212 47.1616 40.0095 46.7678 37.8702 46.0505C37.1877 45.8231 37.0652 45.5298 36.9996 45.2499C36.5402 43.3293 38.8459 38.858 41.8339 35.8698C48.9434 28.756 52.6095 26.9753 60.3533 30.436C69.1382 34.3647 77.9408 37.4405 78.0284 37.471C79.179 37.8691 80.4171 37.2653 80.8152 36.1235C81.2089 34.9816 80.6095 33.7347 79.4676 33.3367C79.38 33.3061 70.7526 30.2917 62.1426 26.4372C52.1108 21.9528 46.6069 24.9059 38.745 32.7723C35.7525 35.7648 31.6881 41.8197 32.7381 46.2605C33.1886 48.1505 34.5188 49.5506 36.4961 50.2023C41.4531 51.8386 45.9767 50.2722 49.3455 45.8011C50.7368 45.5868 51.4937 45.2718 52.6311 44.7599C53.0423 44.5762 53.5236 44.3619 54.1624 44.1037C56.665 46.4531 60.0424 49.1874 63.5993 52.0617C70.0305 57.2635 77.3237 63.1612 78.9643 66.5737C79.7738 68.258 78.903 69.3562 78.3124 69.8592C77.4461 70.6031 76.2606 70.8393 75.6175 70.3885C74.9087 69.9029 73.9856 69.8724 73.255 70.3098C72.52 70.7472 72.1088 71.5741 72.2006 72.4229C72.3493 73.8142 71.0762 74.6105 70.525 74.8861C69.1249 75.5949 67.6637 75.4724 67.1168 74.9649C66.5042 74.3962 65.6248 74.2299 64.8461 74.5186C64.0675 74.8117 63.5248 75.5292 63.4461 76.3604C63.3148 77.7953 62.2517 79.1735 60.8647 79.7116C60.1954 79.9653 59.2241 80.1185 58.3536 79.3222C57.8111 78.8322 57.0585 78.644 56.3543 78.8146C55.6412 78.9895 55.068 79.5059 54.8186 80.1927C54.7356 80.4115 54.5473 80.9365 52.4998 80.9365C51.0429 80.9365 48.4222 79.9522 47.1405 79.1033C45.6049 78.0927 35.9754 70.909 27.6587 63.944C26.4906 62.9596 24.4693 60.8508 22.6843 58.987C21.1005 57.3333 19.6525 55.8327 18.9086 55.2027C17.9768 54.4152 16.5986 54.5333 15.8243 55.4609C15.0456 56.384 15.1592 57.7666 16.0825 58.5453C16.7606 59.1185 18.0731 60.5052 19.5212 62.0146C21.4725 64.0533 23.4893 66.1621 24.8456 67.2996C32.992 74.1203 42.7832 81.4835 44.7343 82.7652C46.3444 83.824 49.8137 85.3115 52.5 85.3115C54.6568 85.3115 56.3151 84.817 57.4656 83.8503C59.0055 84.4497 60.7556 84.454 62.44 83.7978C64.4306 83.0277 66.0668 81.4747 66.9943 79.5935C68.718 79.961 70.6913 79.7028 72.4849 78.8017C74.2393 77.918 75.5079 76.5661 76.1379 74.9866C77.8793 75.0785 79.6729 74.4616 81.156 73.1885C83.6676 71.0405 84.3587 67.6981 82.9063 64.6837Z" fill="#181818"/>
<path d="M43.7499 28.4368H24.0624C22.8549 28.4368 21.8748 29.4168 21.8748 30.6243C21.8748 31.8318 22.8549 32.8119 24.0624 32.8119H43.7499C44.9574 32.8119 45.9375 31.8318 45.9375 30.6243C45.9375 29.4168 44.9574 28.4368 43.7499 28.4368Z" fill="#181818"/>
<path d="M89.3156 60.0286C88.6374 59.0268 87.2812 58.7512 86.2794 59.4337L79.8833 63.7299C78.8815 64.4036 78.6144 65.7643 79.2883 66.7661C79.7126 67.3918 80.404 67.733 81.1084 67.733C81.5241 67.733 81.9484 67.6149 82.3247 67.3612L88.7209 63.065C89.7225 62.3911 89.9893 61.0306 89.3156 60.0286Z" fill="#181818"/>
<path d="M75.7356 70.4675C74.1694 69.2337 67.1649 62.0632 62.8337 57.5482C61.998 56.6731 60.6112 56.6425 59.7405 57.4825C58.8654 58.3182 58.8392 59.705 59.6749 60.5757C60.7993 61.7482 70.7173 72.0864 73.023 73.9064C73.421 74.2214 73.9024 74.3746 74.3749 74.3746C75.018 74.3746 75.6611 74.0859 76.0985 73.5389C76.8469 72.5937 76.6851 71.2156 75.7356 70.4675Z" fill="#181818"/>
<path d="M66.9943 74.8556C64.3736 72.7599 57.7894 65.7642 56.3017 64.1456C55.4792 63.2531 54.101 63.2006 53.2085 64.0143C52.3203 64.8324 52.2592 66.2193 53.0773 67.1075C53.156 67.1906 61.0136 75.6738 64.2598 78.2726C64.6624 78.5919 65.148 78.7494 65.6248 78.7494C66.2636 78.7494 66.9022 78.4649 67.3354 77.9313C68.0882 76.9861 67.935 75.608 66.9943 74.8556Z" fill="#181818"/>
<path d="M58.2881 79.2613C55.1687 76.632 48.7856 69.8375 47.5388 68.5031C46.7119 67.6194 45.3249 67.5712 44.4456 68.3981C43.5619 69.225 43.518 70.6074 44.3406 71.4913C46.1344 73.4119 52.2418 79.887 55.4663 82.6082C55.8774 82.9537 56.3762 83.1244 56.8749 83.1244C57.4961 83.1244 58.1175 82.8576 58.5506 82.3457C59.3293 81.4181 59.2112 80.04 58.2881 79.2613Z" fill="#181818"/>
<path d="M25.5675 24.6613C21.8181 21.1087 6.825 19.958 2.31882 19.6912C1.69764 19.6606 1.12444 19.8661 0.687012 20.2818C0.249375 20.693 0 21.2705 0 21.8743V61.2493C0 62.4568 0.980068 63.4368 2.18757 63.4368H15.3126C16.2576 63.4368 17.0976 62.8288 17.3906 61.9275C17.7099 60.9474 25.2482 37.8125 26.2412 26.4375C26.2982 25.7724 26.0531 25.1161 25.5675 24.6613ZM13.7156 59.0619H4.37493V24.2193C11.4056 24.7749 18.9919 25.9824 21.7481 27.3211C20.5888 36.9024 15.3431 53.9255 13.7156 59.0619Z" fill="#181818"/>
<path d="M102.812 24.0618C85.6361 24.0618 76.1074 28.4587 75.7093 28.6425C75.1406 28.9093 74.7161 29.4037 74.5412 30.0031C74.3662 30.6026 74.4536 31.2457 74.7817 31.7793C77.4855 36.1325 85.9511 60.3088 87.5786 66.2062C87.8411 67.1555 88.7031 67.8117 89.6874 67.8117H102.812C104.02 67.8117 105 66.8317 105 65.6242V26.2492C105 25.0374 104.02 24.0618 102.812 24.0618ZM100.625 63.4368H91.3238C89.25 56.6817 83.1249 39.068 79.7081 31.7881C83.0462 30.6551 90.217 28.7081 100.625 28.4632V63.4368Z" fill="#181818"/>
</g>
<defs>
<clipPath id="clip0">
<rect width="105" height="105" fill="white"/>
</clipPath>
</defs>
</svg>
