<svg width="105" height="105" viewBox="0 0 105 105" fill="none" xmlns="http://www.w3.org/2000/svg">
<path d="M7.9718 30.5997H24.1931C25.0425 30.5997 25.7312 29.9113 25.7312 29.0616C25.7312 28.212 25.0425 27.5236 24.1931 27.5236H7.9718C7.12237 27.5236 6.43372 28.212 6.43372 29.0616C6.43372 29.9113 7.12216 30.5997 7.9718 30.5997Z" fill="#181818"/>
<path d="M23.6369 38.0045H17.229C16.3796 38.0045 15.6909 38.693 15.6909 39.5426C15.6909 40.3922 16.3796 41.0807 17.229 41.0807H23.6369C24.4863 41.0807 25.175 40.3922 25.175 39.5426C25.175 38.693 24.4863 38.0045 23.6369 38.0045Z" fill="#181818"/>
<path d="M1.53809 48.6706H17.229C18.0785 48.6706 18.7671 47.9821 18.7671 47.1325C18.7671 46.2829 18.0785 45.5944 17.229 45.5944H1.53809C0.688652 45.5944 0 46.2829 0 47.1325C0 47.9821 0.688652 48.6706 1.53809 48.6706Z" fill="#181818"/>
<path d="M25.7312 75.9382C25.7312 75.0886 25.0425 74.4001 24.1931 74.4001H7.9718C7.12237 74.4001 6.43372 75.0886 6.43372 75.9382C6.43372 76.7879 7.12237 77.4763 7.9718 77.4763H24.1931C25.0425 77.4763 25.7312 76.7879 25.7312 75.9382Z" fill="#181818"/>
<path d="M23.6369 63.9194H17.229C16.3796 63.9194 15.6909 64.6079 15.6909 65.4575C15.6909 66.3072 16.3796 66.9956 17.229 66.9956H23.6369C24.4863 66.9956 25.175 66.3072 25.175 65.4575C25.175 64.6079 24.4863 63.9194 23.6369 63.9194Z" fill="#181818"/>
<path d="M18.7671 57.8676C18.7671 57.0179 18.0785 56.3295 17.229 56.3295H1.53809C0.688652 56.3295 0 57.0179 0 57.8676C0 58.7172 0.688652 59.4056 1.53809 59.4056H17.229C18.0785 59.4056 18.7671 58.7172 18.7671 57.8676Z" fill="#181818"/>
<path d="M65.5284 34.0081C66.378 34.0081 67.0665 33.3197 67.0665 32.4701V30.1223C67.0665 29.2727 66.378 28.5842 65.5284 28.5842C64.6788 28.5842 63.9903 29.2727 63.9903 30.1223V32.4701C63.9903 33.3197 64.6788 34.0081 65.5284 34.0081Z" fill="#181818"/>
<path d="M82.4393 35.5889C81.8385 34.9884 80.8648 34.9884 80.2641 35.5889L78.604 37.249C78.0033 37.8499 78.0033 38.8236 78.604 39.4243C79.2051 40.0249 80.1786 40.0247 80.7792 39.4243L82.4393 37.7642C83.0398 37.1635 83.0398 36.1898 82.4393 35.5889Z" fill="#181818"/>
<path d="M85.5584 50.962C84.7088 50.962 84.0203 51.6504 84.0203 52.5001C84.0203 53.3497 84.7088 54.0381 85.5584 54.0381H87.9059C88.7556 54.0381 89.444 53.3497 89.444 52.5001C89.444 51.6504 88.7556 50.962 87.9059 50.962H85.5584Z" fill="#181818"/>
<path d="M80.7792 65.5756C80.1784 64.9751 79.2047 64.9751 78.604 65.5756C78.0033 66.1765 78.0033 67.1502 78.604 67.7509L80.2641 69.411C80.8652 70.0117 81.8387 70.0114 82.4393 69.411C83.04 68.8101 83.04 67.8364 82.4393 67.2357L80.7792 65.5756Z" fill="#181818"/>
<path d="M63.9903 72.53V74.8776C63.9903 75.7272 64.6788 76.4156 65.5284 76.4156C66.378 76.4156 67.0665 75.7272 67.0665 74.8776V72.53C67.0665 71.6804 66.378 70.9919 65.5284 70.9919C64.6788 70.9919 63.9903 71.6806 63.9903 72.53Z" fill="#181818"/>
<path d="M50.2774 65.5756L48.6173 67.2357C48.0166 67.8366 48.0166 68.8103 48.6173 69.411C49.2181 70.0117 50.1918 70.0114 50.7923 69.411L52.4524 67.7509C53.0531 67.15 53.0531 66.1763 52.4524 65.5756C51.8519 64.9751 50.878 64.9751 50.2774 65.5756Z" fill="#181818"/>
<path d="M43.1507 50.962C42.3013 50.962 41.6126 51.6504 41.6126 52.5001C41.6126 53.3497 42.3013 54.0381 43.1507 54.0381H45.4984C46.3479 54.0381 47.0365 53.3497 47.0365 52.5001C47.0365 51.6504 46.3479 50.962 45.4984 50.962H43.1507Z" fill="#181818"/>
<path d="M52.4527 37.249L50.7926 35.5889C50.1919 34.9884 49.218 34.9884 48.6175 35.5889C48.0168 36.1898 48.0168 37.1635 48.6175 37.7642L50.2776 39.4243C50.8785 40.0249 51.8522 40.0247 52.4527 39.4243C53.0533 38.8236 53.0533 37.8499 52.4527 37.249Z" fill="#181818"/>
<path d="M73.7992 52.5C73.7992 51.6504 73.1108 50.9619 72.2611 50.9619H67.0665V39.5424C67.0665 38.6927 66.378 38.0043 65.5284 38.0043C64.6788 38.0043 63.9903 38.6927 63.9903 39.5424V52.5C63.9903 53.3496 64.6788 54.0381 65.5284 54.0381H72.2611C73.1106 54.0381 73.7992 53.3496 73.7992 52.5Z" fill="#181818"/>
<path d="M94.693 52.2461C95.541 52.1947 96.1866 51.4656 96.1351 50.6178C95.1567 34.4776 81.7126 21.8343 65.5282 21.8343C48.6191 21.8343 34.8625 35.5909 34.8625 52.5002C34.8625 69.4093 48.6191 83.166 65.5282 83.166C80.6772 83.166 93.6034 72.0667 95.8521 57.0889C95.9782 56.2489 95.3995 55.4657 94.5593 55.3395C93.7214 55.2138 92.9361 55.7919 92.81 56.6324C90.79 70.0883 79.1711 80.09 65.5282 80.09C50.3153 80.09 37.9387 67.7133 37.9387 52.5004C37.9387 37.2875 50.3153 24.9107 65.5282 24.9107C80.089 24.9107 92.1843 36.2845 93.0645 50.8044C93.1158 51.6518 93.8442 52.2954 94.693 52.2461Z" fill="#181818"/>
<path d="M65.5282 13.0284C60.118 13.0284 54.8174 14.1508 49.9386 16.2498H22.8008C21.9513 16.2498 21.2627 16.9383 21.2627 17.7879C21.2627 18.6375 21.9513 19.326 22.8008 19.326H44.1521C41.2652 21.184 38.6076 23.4251 36.2644 26.0124C35.6943 26.6417 35.7422 27.6144 36.3718 28.1847C37.0016 28.7551 37.9739 28.7069 38.5444 28.0773C45.4355 20.4685 55.2708 16.1046 65.5282 16.1046C85.5967 16.1046 101.924 32.4315 101.924 52.5C101.924 72.5684 85.597 88.8955 65.5282 88.8955C45.4597 88.8955 29.1328 72.5686 29.1328 52.5C29.1328 45.4724 31.1403 38.6515 34.9379 32.7744C35.3989 32.0609 35.1943 31.109 34.4808 30.6479C33.7673 30.1871 32.8154 30.3914 32.3541 31.1051C28.2341 37.4805 26.0566 44.8787 26.0566 52.5C26.0566 66.3974 33.2766 78.6389 44.1619 85.6741H22.801C21.9516 85.6741 21.2629 86.3625 21.2629 87.2122C21.2629 88.0618 21.9516 88.7503 22.801 88.7503H49.9174C54.7081 90.8214 59.9862 91.9716 65.5284 91.9716C87.2929 91.9716 105 74.2648 105 52.5C105 30.7353 87.2929 13.0284 65.5282 13.0284Z" fill="#181818"/>
</svg>
