<svg width="71" height="71" viewBox="0 0 71 71" fill="none" xmlns="http://www.w3.org/2000/svg">
<path d="M64.7598 8.45898H6.24023C2.80367 8.45898 0 11.2596 0 14.6992V56.3008C0 59.7287 2.79119 62.541 6.24023 62.541H64.7598C68.1877 62.541 71 59.7498 71 56.3008V14.6992C71 11.2713 68.2088 8.45898 64.7598 8.45898ZM63.8981 12.6191L35.6323 40.885L7.12205 12.6191H63.8981ZM4.16016 55.4394V15.5408L24.1953 35.4042L4.16016 55.4394ZM7.1018 58.3809L27.1496 38.3331L34.1743 45.2974C34.9875 46.1037 36.2997 46.101 37.1096 45.2911L43.959 38.4416L63.8982 58.3809H7.1018ZM66.8398 55.4392L46.9006 35.5L66.8398 15.5606V55.4392Z" fill="#181818"/>
</svg>
