<svg width="32" height="33" viewBox="0 0 32 33" fill="none" xmlns="http://www.w3.org/2000/svg">
<g clip-path="url(#clip0)">
<path d="M18.1605 31.9999H13.0259C12.1683 31.9999 11.4706 31.3022 11.4706 30.4446V18.8634H8.47505C7.61742 18.8634 6.91977 18.1655 6.91977 17.3081V12.3455C6.91977 11.4879 7.61742 10.7902 8.47505 10.7902H11.4706V8.30516C11.4706 5.84112 12.2444 3.74474 13.7079 2.24303C15.1781 0.734467 17.2326 -0.0627441 19.6495 -0.0627441L23.5653 -0.0563841C24.4215 -0.0549164 25.1179 0.642735 25.1179 1.4989V6.10653C25.1179 6.96416 24.4205 7.66182 23.5631 7.66182L20.9266 7.66279C20.1226 7.66279 19.9178 7.824 19.874 7.87341C19.8019 7.95536 19.716 8.18701 19.716 8.82669V10.79H23.365C23.6397 10.79 23.9058 10.8578 24.1345 10.9854C24.6279 11.2611 24.9347 11.7824 24.9347 12.3458L24.9327 17.3083C24.9327 18.1655 24.2351 18.8631 23.3774 18.8631H19.716V30.4446C19.716 31.3022 19.0181 31.9999 18.1605 31.9999ZM13.3503 30.1202H17.8361V18.0219C17.8361 17.4492 18.3021 16.9835 18.8745 16.9835H23.0531L23.0548 12.6699H18.8743C18.3019 12.6699 17.8361 12.2041 17.8361 11.6315V8.82669C17.8361 8.09234 17.9107 7.25722 18.465 6.62953C19.1348 5.87072 20.1903 5.78315 20.9261 5.78315L23.2383 5.78217V1.82277L19.648 1.8169C15.7639 1.8169 13.3503 4.30321 13.3503 8.30516V11.6315C13.3503 12.2039 12.8845 12.6699 12.3121 12.6699H8.79941V16.9835H12.3121C12.8845 16.9835 13.3503 17.4492 13.3503 18.0219V30.1202ZM23.5616 1.82326H23.5619H23.5616Z" fill="#F5D10D"/>
</g>
<defs>
<clipPath id="clip0">
<rect width="32" height="32.0626" fill="white"/>
</clipPath>
</defs>
</svg>
