<svg width="112" height="39" viewBox="0 0 112 39" fill="none" xmlns="http://www.w3.org/2000/svg">
<rect width="51" height="39" fill="#181818"/>
<path d="M48.5813 8.6L41.0933 31H37.7333L31.6213 13.112L25.5093 31H22.0853L14.5973 8.6H17.8933L23.9413 26.808L30.2453 8.6H33.1893L39.3653 26.904L45.5413 8.6H48.5813Z" fill="white"/>
<path d="M56.3799 14.04H59.4519V31H56.3799V14.04ZM57.9159 10.776C57.3186 10.776 56.8172 10.584 56.4119 10.2C56.0279 9.816 55.8359 9.34667 55.8359 8.792C55.8359 8.23733 56.0279 7.768 56.4119 7.384C56.8172 6.97867 57.3186 6.776 57.9159 6.776C58.5132 6.776 59.0039 6.968 59.3879 7.352C59.7932 7.71467 59.9959 8.17333 59.9959 8.728C59.9959 9.304 59.7932 9.79467 59.3879 10.2C59.0039 10.584 58.5132 10.776 57.9159 10.776ZM71.4934 13.88C73.8401 13.88 75.6321 14.456 76.8694 15.608C78.1281 16.76 78.7574 18.4773 78.7574 20.76V31H75.8454V28.76C75.3334 29.5493 74.5974 30.1573 73.6374 30.584C72.6987 30.9893 71.5787 31.192 70.2774 31.192C68.3787 31.192 66.8534 30.7333 65.7014 29.816C64.5707 28.8987 64.0054 27.6933 64.0054 26.2C64.0054 24.7067 64.5494 23.512 65.6374 22.616C66.7254 21.6987 68.4534 21.24 70.8214 21.24H75.6854V20.632C75.6854 19.3093 75.3014 18.296 74.5334 17.592C73.7654 16.888 72.6347 16.536 71.1414 16.536C70.1387 16.536 69.1574 16.7067 68.1974 17.048C67.2374 17.368 66.4267 17.8053 65.7654 18.36L64.4854 16.056C65.3601 15.352 66.4054 14.8187 67.6214 14.456C68.8374 14.072 70.1281 13.88 71.4934 13.88ZM70.7894 28.824C71.9627 28.824 72.9761 28.568 73.8294 28.056C74.6827 27.5227 75.3014 26.776 75.6854 25.816V23.448H70.9494C68.3467 23.448 67.0454 24.3227 67.0454 26.072C67.0454 26.9253 67.3761 27.5973 68.0374 28.088C68.6987 28.5787 69.6161 28.824 70.7894 28.824ZM93.4984 13.88C95.6531 13.88 97.3597 14.5093 98.6184 15.768C99.8984 17.0053 100.538 18.8293 100.538 21.24V31H97.4664V21.592C97.4664 19.9493 97.0717 18.712 96.2824 17.88C95.4931 17.048 94.3624 16.632 92.8904 16.632C91.2264 16.632 89.9144 17.1227 88.9544 18.104C87.9944 19.064 87.5144 20.4507 87.5144 22.264V31H84.4424V14.04H87.3864V16.6C88.0051 15.7253 88.8371 15.0533 89.8824 14.584C90.9491 14.1147 92.1544 13.88 93.4984 13.88Z" fill="#181818"/>
</svg>
