<svg width="71" height="71" viewBox="0 0 71 71" fill="none" xmlns="http://www.w3.org/2000/svg">
<g clip-path="url(#clip0)">
<path d="M51.0279 71C48.736 71 46.4635 70.5948 44.2414 69.7875C34.4518 66.2313 25.365 60.4392 17.963 53.0373C10.561 45.6355 4.76896 36.5485 1.21286 26.759C0.0701158 23.6129 -0.26712 20.3653 0.210862 17.1061C0.658615 14.0533 1.84116 11.0896 3.63079 8.53532C5.42832 5.96986 7.82474 3.83606 10.5609 2.36467C13.4787 0.795667 16.6635 0 20.027 0C21.073 0 21.9772 0.73091 22.1964 1.75371L25.6788 18.0052C25.8365 18.7411 25.6103 19.5069 25.0783 20.0391L19.1277 25.9895C24.7412 37.1502 33.8499 46.2589 45.0106 51.8724L50.961 45.9218C51.4932 45.3897 52.2591 45.1639 52.9948 45.3212L69.2464 48.8037C70.2693 49.0229 71.0001 49.927 71.0001 50.9731C71.0001 54.3366 70.2044 57.5215 68.6353 60.4393C67.1639 63.1755 65.0301 65.5719 62.4646 67.3694C59.9105 69.1591 56.9468 70.3416 53.8938 70.7894C52.9372 70.9298 51.9806 70.9999 51.0279 71ZM18.2542 4.53438C13.8176 5.02415 9.87978 7.34959 7.26481 11.0818C4.32426 15.2785 3.63855 20.4404 5.38353 25.244C12.2203 44.0646 26.9357 58.78 45.7563 65.6168C50.5599 67.3618 55.7217 66.6762 59.9186 63.7356C63.6508 61.1206 65.9762 57.1827 66.466 52.7461L53.2454 49.9132L47.0309 56.1276C46.3696 56.7889 45.3649 56.9646 44.5187 56.5669C31.3191 50.3658 20.6346 39.6813 14.4334 26.4816C14.0359 25.6354 14.2114 24.6306 14.8727 23.9694L21.0872 17.755L18.2542 4.53438Z" fill="#181818"/>
</g>
<defs>
<clipPath id="clip0">
<rect width="71" height="71" fill="white"/>
</clipPath>
</defs>
</svg>
