<svg width="105" height="105" viewBox="0 0 105 105" fill="none" xmlns="http://www.w3.org/2000/svg">
<g clip-path="url(#clip0)">
<path d="M62.1444 12.6283C61.0415 12.3627 59.9355 13.0405 59.6702 14.1414C59.4048 15.2424 60.0822 16.3502 61.1832 16.6156C77.8052 20.6226 89.414 35.3788 89.414 52.4998C89.414 72.8542 72.8546 89.4138 52.5001 89.4138C32.1455 89.4138 15.5861 72.8542 15.5861 52.4998C15.5861 35.3794 27.1943 20.6232 43.8154 16.6158C44.9165 16.3502 45.5939 15.2424 45.3285 14.1416C45.0629 13.0405 43.9547 12.3635 42.8542 12.6285C34.0605 14.7488 26.0935 19.832 20.4208 26.9419C14.5747 34.2691 11.4846 43.1069 11.4846 52.4998C11.4846 75.1158 29.8841 93.5153 52.5001 93.5153C75.116 93.5153 93.5155 75.116 93.5155 52.4998C93.5155 43.1067 90.4254 34.2687 84.5789 26.9413C78.906 19.8316 70.9386 14.7484 62.1444 12.6283Z" fill="#181818"/>
<path d="M103.764 47.5673L101.365 43.0911L101.765 37.5572C102.149 34.0102 100.735 30.5485 97.9751 28.291L93.9925 25.0299L92.4259 20.3107C91.5486 16.7023 88.8081 13.8021 85.2525 12.7281L80.3366 11.243L76.5718 6.89121C74.3442 4.27094 70.9725 2.908 67.5521 3.24412L62.4497 3.7525L57.4342 1.23641C54.3432 -0.411385 50.658 -0.412821 47.5667 1.23621L43.0906 3.6352L37.557 3.23489C34.0086 2.85016 30.5481 4.2652 28.2908 7.02451L25.0295 11.0071L20.3105 12.5737C16.7019 13.451 13.8017 16.1915 12.7277 19.7469L11.2428 24.6628L6.89102 28.4278C4.27095 30.6554 2.90719 34.0264 3.24372 37.4475L3.75211 42.5499L1.23601 47.5654C-0.411987 50.6566 -0.413218 54.3416 1.2356 57.4331L3.6348 61.9091L3.23449 67.443C2.84997 70.99 4.2648 74.4515 7.02412 76.7092L11.0067 79.9703L12.5733 84.6895C13.4504 88.2979 16.1909 91.1981 19.7467 92.2721L24.6624 93.757L28.4274 98.109C30.6552 100.729 34.0254 102.093 37.4471 101.756L42.5492 101.248L47.5644 103.763C49.1105 104.588 50.8052 105 52.5 105C54.1935 105 55.8871 104.588 57.4323 103.764L61.9085 101.365L67.4421 101.766C70.989 102.149 74.4507 100.735 76.7086 97.9759L79.9697 93.9933L84.6891 92.4269C88.2973 91.5496 91.1973 88.8091 92.2713 85.2535L93.7564 80.3378L98.1084 76.5728C100.728 74.3452 102.092 70.9742 101.756 67.5529L101.247 62.451L103.763 57.4354C105.411 54.3441 105.413 50.6588 103.764 47.5673ZM100.135 55.5214C100.126 55.5382 100.117 55.555 100.109 55.5719L97.3143 61.1428C97.1402 61.4898 97.0682 61.8792 97.1066 62.2658L97.674 67.9567C97.8787 70.0376 97.0479 72.0904 95.4383 73.4591L90.6235 77.6246C90.3298 77.8787 90.1145 78.2107 90.0023 78.5823L88.3451 84.0671C87.6845 86.2541 85.8899 87.9355 83.6617 88.455C83.6008 88.4691 83.5405 88.4861 83.4812 88.5058L78.1135 90.2873C77.745 90.4098 77.4187 90.6341 77.1728 90.9346L73.5348 95.3778C72.153 97.0668 70.0302 97.9293 67.858 97.6849C67.831 97.6818 67.8037 97.6794 67.7768 97.6773L61.6118 97.2315C61.2236 97.2036 60.8372 97.286 60.4951 97.4694L55.4986 100.147C53.6144 101.152 51.3639 101.148 49.4782 100.136C49.4614 100.127 49.4446 100.118 49.4277 100.11L43.857 97.3151C43.5707 97.1716 43.2557 97.0973 42.9375 97.0973C42.8698 97.0973 42.8019 97.1006 42.734 97.1074L37.0431 97.6744C34.9624 97.8799 32.9094 97.0483 31.5407 95.4389L27.3752 90.6241C27.1213 90.3304 26.7891 90.1149 26.4172 90.0027L20.9325 88.3459C18.7453 87.6853 17.0641 85.8907 16.5446 83.6623C16.5305 83.6014 16.5135 83.5413 16.4938 83.4818L14.7123 78.114C14.59 77.7454 14.3657 77.4193 14.0652 77.1735L9.62224 73.5352C7.93322 72.1534 7.07067 70.0312 7.31512 67.8587C7.3182 67.8316 7.32066 67.8045 7.32271 67.7772L7.76855 61.612C7.79664 61.2248 7.71399 60.8376 7.53066 60.4953L4.85255 55.4993C3.84767 53.615 3.85198 51.3645 4.86404 49.4788C4.87306 49.4622 4.88167 49.4454 4.89008 49.4286L7.68446 43.8576C7.85857 43.5106 7.93056 43.1212 7.892 42.7348L7.32496 37.0435C7.1203 34.9626 7.95107 32.9098 9.56072 31.5411L14.3755 27.3756C14.6692 27.1215 14.8845 26.7895 14.9969 26.4179L16.6539 20.9329C17.3145 18.7459 19.1091 17.0647 21.3375 16.545C21.3984 16.5309 21.4585 16.5139 21.518 16.4942L26.8854 14.7125C27.254 14.5902 27.58 14.3659 27.8259 14.0654L31.4644 9.62223C32.8462 7.93342 34.969 7.07127 37.1409 7.31531C37.168 7.31839 37.1951 7.32085 37.2222 7.3229L43.3872 7.76874C43.7733 7.79622 44.1616 7.71419 44.5038 7.53085L49.5001 4.85295C51.3842 3.84807 53.6349 3.85217 55.5204 4.86443C55.537 4.87325 55.5538 4.88207 55.5708 4.89048L61.1418 7.68486C61.4887 7.85897 61.8782 7.93116 62.2646 7.8924L67.9557 7.32536C70.0364 7.12029 72.0894 7.95146 73.4581 9.56112L77.6236 14.3759C77.8775 14.6696 78.2097 14.8849 78.5815 14.9973L84.0663 16.6543C86.2533 17.3149 87.9345 19.1097 88.4542 21.3379C88.4683 21.3988 88.4853 21.4589 88.505 21.5184L90.2867 26.8858C90.4092 27.2544 90.6333 27.5804 90.9337 27.8263L95.3769 31.4646C97.066 32.8464 97.9283 34.9683 97.6839 37.1411C97.6808 37.1682 97.6783 37.1953 97.6765 37.2226L97.2306 43.3878C97.2025 43.775 97.2852 44.1622 97.4683 44.5044L100.146 49.5007C101.152 51.3854 101.147 53.6359 100.135 55.5214Z" fill="#181818"/>
<path d="M43.6 41.3264C43.271 40.6333 42.5666 40.1528 41.7483 40.1528H30.9127C29.78 40.1528 28.8619 41.0709 28.8619 42.2035V73.2453C28.8619 74.3779 29.78 75.2961 30.9127 75.2961H41.7483C42.5984 75.2961 43.3274 74.7791 43.6383 74.0422C45.2016 74.2616 46.8121 74.7062 48.4888 75.1705C51.0096 75.8684 53.6159 76.5901 56.324 76.5901H68.1629C71.8227 76.5901 74.7883 74.6499 76.0961 71.3996C76.7331 69.816 76.8446 68.1725 76.4724 66.7966C77.1533 66.1845 77.7287 65.4224 78.1639 64.5326C79.0459 62.7295 79.2221 60.7019 78.7221 58.9943C79.654 58.094 80.3492 56.9051 80.7126 55.5034C81.0524 54.193 81.0465 52.9 80.7442 51.7796C82.594 50.6915 83.8398 48.7145 83.8398 46.487C83.8398 44.7399 83.1596 43.1301 81.9242 41.9542C80.738 40.825 79.1581 40.203 77.4757 40.203L60.7883 40.2034C59.5205 38.6131 59.126 36.4548 59.8478 34.7176C61.3293 31.1521 61.2374 28.134 59.5507 24.9319C58.2985 22.5553 54.9315 20.1891 52.1016 20.5931C50.3911 20.8376 49.1535 22.0465 48.7905 23.8274C48.6836 24.3514 48.6543 24.9174 48.6205 25.5728C48.5368 27.1896 48.4219 29.4041 47.0262 32.0781C46.0802 33.8907 45.7646 35.7551 45.4861 37.4C45.0872 39.7564 44.8938 40.8915 43.6 41.3264ZM32.9634 44.2543H39.6975V71.1945H32.9634V44.2543ZM49.5302 38.0846C49.7691 36.6734 50.016 35.2141 50.6624 33.976C52.4718 30.5094 52.625 27.552 52.7167 25.7851C52.7411 25.3144 52.764 24.8698 52.8096 24.6463C52.8098 24.6448 52.8102 24.6432 52.8106 24.6417C53.522 24.6516 55.2728 25.612 55.9218 26.8441C57.0452 28.9761 57.0826 30.6837 56.0605 33.1443C55.1386 35.3628 55.208 37.9371 56.1197 40.226C55.122 40.3648 54.3534 41.219 54.3534 42.2548C54.3534 43.3873 55.2717 44.3056 56.4042 44.3056L77.4757 44.305C78.1005 44.305 78.6762 44.5252 79.0962 44.9251C79.3892 45.2038 79.7383 45.7013 79.7383 46.4872C79.7383 47.5872 78.7299 48.5384 77.5362 48.5644L72.2577 48.6793C71.1254 48.7039 70.2274 49.6417 70.252 50.7741C70.2764 51.8914 71.1894 52.7804 72.3016 52.7804C72.3165 52.7804 72.3317 52.7804 72.3471 52.78L76.7431 52.6844C76.8865 53.0907 76.9611 53.8657 76.6592 54.7535C76.4023 55.5086 75.7126 56.7751 73.9777 56.7751C72.8452 56.7751 71.9269 57.6932 71.9269 58.8259C71.9269 59.9585 72.8452 60.8767 73.9777 60.8767C74.2886 60.8767 74.5937 60.8574 74.8923 60.8194C74.9177 61.3998 74.7984 62.0796 74.4799 62.7306C74.1034 63.5 73.3591 64.4175 71.9519 64.4175C70.8195 64.4175 69.9011 65.3357 69.9011 66.4683C69.9011 67.6009 70.8195 68.5191 71.9519 68.5191C72.1642 68.5191 72.3742 68.5096 72.5815 68.491C72.5762 68.8845 72.4962 69.3765 72.2724 69.9146C71.9509 70.6886 70.9064 72.4885 68.1633 72.4885H56.3244C54.1737 72.4885 51.9441 71.8713 49.5837 71.2177C47.7054 70.6976 45.7795 70.1648 43.7995 69.9269V45.477C48.4166 44.6403 49.0532 40.9025 49.5302 38.0846Z" fill="#181818"/>
<path d="M52.5004 15.5861C53.6331 15.5861 54.5512 14.668 54.5512 13.5353C54.5512 12.4027 53.6331 11.4846 52.5004 11.4846H52.499C51.3663 11.4846 50.449 12.4027 50.449 13.5353C50.449 14.668 51.3678 15.5861 52.5004 15.5861Z" fill="#181818"/>
</g>
<defs>
<clipPath id="clip0">
<rect width="105" height="105" fill="white"/>
</clipPath>
</defs>
</svg>
