<svg width="105" height="105" viewBox="0 0 105 105" fill="none" xmlns="http://www.w3.org/2000/svg">
<g clip-path="url(#clip0)">
<path d="M18.4674 81.2005C16.9975 81.2005 15.5843 81.5674 14.3306 82.2564C7.72648 73.7905 4.10156 63.2738 4.10156 52.5C4.10156 25.8126 25.8126 4.10156 52.5 4.10156C55.7444 4.10156 58.9872 4.4244 62.1387 5.06126C63.2474 5.28557 64.3304 4.56779 64.5547 3.45749C64.7791 2.34718 64.0613 1.26572 62.951 1.04061C59.5327 0.350075 56.0168 0 52.5 0C38.477 0 25.2927 5.46101 15.3769 15.3769C5.46101 25.2927 0 38.477 0 52.5C0 64.296 4.00543 75.8076 11.2977 85.0361C10.3588 86.4388 9.85416 88.0875 9.85416 89.8138C9.85416 92.1145 10.7506 94.2775 12.3776 95.9037C14.0038 97.5307 16.1667 98.4271 18.4674 98.4271C20.7682 98.4271 22.9311 97.5307 24.5581 95.9037C26.1851 94.2775 27.0807 92.1137 27.0807 89.813C27.0807 87.5131 26.1851 85.3493 24.5581 83.7231C22.9311 82.0961 20.7682 81.2005 18.4674 81.2005ZM21.6574 93.0037C20.8058 93.8561 19.6723 94.3255 18.4674 94.3255C17.2626 94.3255 16.1299 93.8561 15.2775 93.0037C14.4252 92.1514 13.9557 91.0186 13.9557 89.8138C13.9557 88.6082 14.4252 87.4754 15.2775 86.6231C16.1291 85.7707 17.2626 85.3021 18.4674 85.3021C19.6723 85.3021 20.805 85.7715 21.6574 86.6231C22.5097 87.4754 22.9792 88.6082 22.9792 89.8138C22.9792 91.0186 22.5097 92.1514 21.6574 93.0037Z" fill="#181818"/>
<path d="M93.7007 19.9615C95.9301 16.617 95.572 12.0444 92.6232 9.09556C90.9962 7.46935 88.8333 6.57294 86.5326 6.57294C84.2318 6.57294 82.0689 7.46935 80.4419 9.09556C78.8149 10.7226 77.9193 12.8855 77.9193 15.1862C77.9193 17.4869 78.8149 19.6499 80.4419 21.2769C82.0689 22.9039 84.2318 23.7995 86.5326 23.7995C88.0026 23.7995 89.4157 23.4326 90.6694 22.7437C97.2735 31.2104 100.898 41.7262 100.898 52.5C100.898 79.1874 79.1874 100.898 52.5 100.898C49.2877 100.898 46.0753 100.582 42.9535 99.9572C41.8432 99.7353 40.7625 100.455 40.5398 101.566C40.3179 102.677 41.0381 103.757 42.1484 103.979C45.5346 104.656 49.0177 105 52.5 105C66.523 105 79.7073 99.539 89.6231 89.6232C99.539 79.7073 105 66.523 105 52.5C105 40.7032 100.994 29.1908 93.7007 19.9615ZM83.3426 18.3769C82.4903 17.5246 82.0208 16.3919 82.0208 15.1862C82.0208 13.9814 82.4903 12.8486 83.3426 11.9963C84.1942 11.1439 85.3277 10.6745 86.5326 10.6745C87.7374 10.6745 88.8709 11.1439 89.7233 11.9963C91.4817 13.7555 91.4817 16.6178 89.7233 18.3769C88.8709 19.2285 87.7374 19.6979 86.5326 19.6979C85.3269 19.6979 84.1942 19.2285 83.3426 18.3769Z" fill="#181818"/>
<path d="M44.0373 87.7734C44.0373 88.9062 44.9562 89.8242 46.0881 89.8242H58.9111C60.0438 89.8242 60.9619 88.9062 60.9619 87.7734V83.7976C63.6583 83.0719 66.2362 82.0032 68.6587 80.6077L71.4657 83.4147C71.8502 83.7992 72.3717 84.0155 72.9165 84.0155C73.4596 84.0155 73.9819 83.7992 74.3665 83.4139L83.4299 74.344C84.2302 73.5429 84.2302 72.2444 83.4299 71.4441L80.6261 68.6403C82.0216 66.2178 83.0903 63.6399 83.8161 60.9435H87.7766C88.9094 60.9435 89.8274 60.0254 89.8274 58.8927V46.0697C89.8274 44.9369 88.9094 44.0189 87.7766 44.0189H83.8153C83.0895 41.3232 82.0216 38.7453 80.6261 36.3229L83.4147 33.5343C83.7992 33.1498 84.0155 32.6274 84.0155 32.0835C84.0147 31.5396 83.7984 31.0173 83.4139 30.6327L74.3432 21.5693C73.5429 20.769 72.2444 20.769 71.4433 21.5701L68.6587 24.3554C66.2362 22.9599 63.6583 21.8913 60.9619 21.1655V17.2266C60.9619 16.0938 60.0438 15.1758 58.9111 15.1758H46.0881C44.9562 15.1758 44.0373 16.0938 44.0373 17.2266V21.1663C41.3417 21.8913 38.7638 22.9599 36.3413 24.3554L33.5559 21.5701C32.7556 20.7698 31.4571 20.769 30.656 21.5693L21.5861 30.6335C21.2008 31.0181 20.9845 31.5396 20.9845 32.0835C20.9845 32.6274 21.2008 33.1498 21.5853 33.5343L24.3739 36.3229C22.9784 38.7453 21.9097 41.3224 21.1839 44.0189H17.2306C16.0978 44.0189 15.1798 44.9369 15.1798 46.0689L15.1726 58.8919C15.1718 59.4358 15.3881 59.9581 15.7726 60.3426C16.1571 60.7272 16.6786 60.9435 17.2234 60.9435H21.1839C21.9097 63.6399 22.9784 66.2178 24.3739 68.6403L21.5701 71.4441C20.7698 72.2444 20.769 73.5429 21.5701 74.344L30.6335 83.4139C31.0181 83.7984 31.5396 84.0155 32.0835 84.0155H32.0843C32.6283 84.0155 33.1498 83.7992 33.5343 83.4147L36.3405 80.6077C38.7638 82.0032 41.3417 83.0719 44.0373 83.7976V87.7734ZM37.1448 76.2947C36.3333 75.77 35.2654 75.8837 34.5813 76.567L32.0843 79.064L25.92 72.8949L28.4145 70.3995C29.0979 69.7161 29.2116 68.6483 28.6869 67.8368C26.8276 64.9593 25.5202 61.8054 24.8024 58.4617C24.599 57.5172 23.7642 56.8419 22.7973 56.8419H19.2749L19.2797 48.1205H22.7973C23.7642 48.1205 24.599 47.4459 24.8024 46.5007C25.5202 43.1577 26.8276 40.0039 28.6869 37.1264C29.2116 36.3148 29.0979 35.247 28.4145 34.5637L25.936 32.0843L32.1051 25.92L34.5813 28.3969C35.2654 29.0802 36.3325 29.1932 37.1448 28.6693C40.0215 26.81 43.1754 25.5026 46.5191 24.7848C47.4636 24.5813 48.1389 23.7458 48.1389 22.7797V19.2773H56.8603V22.7789C56.8603 23.7458 57.5348 24.5813 58.4801 24.784C61.823 25.5026 64.9777 26.8092 67.8544 28.6685C68.6659 29.1932 69.7338 29.0802 70.4171 28.3961L72.8941 25.92L79.0632 32.0843L76.5847 34.5629C75.9005 35.247 75.7876 36.3148 76.3123 37.1264C78.1716 40.0039 79.4782 43.1577 80.1968 46.5007C80.3994 47.4459 81.235 48.1205 82.2019 48.1205H85.7259V56.8419H82.2019C81.235 56.8419 80.4002 57.5172 80.1968 58.4617C79.479 61.8046 78.1716 64.9593 76.3123 67.836C75.7876 68.6483 75.9013 69.7161 76.5847 70.3995L79.0792 72.8941L72.9149 79.0632L70.4179 76.567C69.7338 75.8829 68.6659 75.77 67.8544 76.2947C64.9769 78.154 61.823 79.4606 58.4801 80.1791C57.5348 80.3826 56.8603 81.2173 56.8603 82.1843V85.7227H48.1389V82.1843C48.1389 81.2181 47.4636 80.3826 46.5191 80.1791C43.1762 79.4614 40.0223 78.154 37.1448 76.2947Z" fill="#181818"/>
<path d="M69.4454 52.5C69.4454 43.1561 61.8439 35.5546 52.5 35.5546C43.1561 35.5546 35.5546 43.1561 35.5546 52.5C35.5546 61.8439 43.1561 69.4454 52.5 69.4454C61.8439 69.4454 69.4454 61.8439 69.4454 52.5ZM39.6562 52.5C39.6562 45.4176 45.4176 39.6562 52.5 39.6562C59.5824 39.6562 65.3438 45.4184 65.3438 52.5C65.3438 59.5816 59.5824 65.3438 52.5 65.3438C45.4176 65.3438 39.6562 59.5824 39.6562 52.5Z" fill="#181818"/>
<path d="M71.3832 7.75613C71.9231 7.75613 72.4519 7.53663 72.8332 7.15531C73.2145 6.77159 73.434 6.24287 73.434 5.70294C73.434 5.16621 73.2153 4.6367 72.8332 4.25298C72.4519 3.87166 71.9231 3.65216 71.3832 3.65216C70.8417 3.65216 70.3154 3.87166 69.934 4.25298C69.5519 4.6367 69.3324 5.16381 69.3324 5.70294C69.3324 6.24448 69.5519 6.77159 69.934 7.15531C70.3154 7.53663 70.8417 7.75613 71.3832 7.75613Z" fill="#181818"/>
<path d="M33.7065 97.2808C33.1674 97.2808 32.6379 97.5003 32.2565 97.8816C31.8752 98.2629 31.6557 98.7924 31.6557 99.3315C31.6557 99.8731 31.8752 100.4 32.2565 100.782C32.6379 101.163 33.1674 101.382 33.7065 101.382C34.2456 101.382 34.7752 101.163 35.1565 100.782C35.5378 100.4 35.7573 99.8707 35.7573 99.3315C35.7573 98.7924 35.5378 98.2629 35.1565 97.8816C34.7752 97.5003 34.2456 97.2808 33.7065 97.2808Z" fill="#181818"/>
</g>
<defs>
<clipPath id="clip0">
<rect width="105" height="105" fill="white"/>
</clipPath>
</defs>
</svg>
